<?xml version="1.0" encoding="utf-8"?>
<!-- Generator: Adobe Illustrator 26.0.1, SVG Export Plug-In . SVG Version: 6.00 Build 0)  -->
<svg version="1.1" id="Layer_1" xmlns="http://www.w3.org/2000/svg" xmlns:xlink="http://www.w3.org/1999/xlink" x="0px" y="0px"
	 viewBox="0 0 1000 1000" style="enable-background:new 0 0 1000 1000;" xml:space="preserve">
<style type="text/css">
	.st0{clip-path:url(#SVGID_00000124119635795107327160000002874226185191231926_);}
	.st1{fill:#AD5738;stroke:#000000;stroke-width:3;stroke-miterlimit:10;}
	.st2{fill:#DD6F47;stroke:#000000;stroke-width:3;stroke-miterlimit:10;}
	.st3{fill:#DD7575;stroke:#000000;stroke-width:3;stroke-miterlimit:10;}
	.st4{opacity:0.86;fill:#6B3622;}
	.st5{fill:#FFE1B2;stroke:#000000;stroke-width:3;stroke-miterlimit:10;}
	.st6{fill:#3D1100;}
	.st7{fill:#DD6F47;}
	.st8{fill:#FFE1B2;}
	.st9{fill:#FFFFFF;}
	.st10{fill:url(#SVGID_00000016773872256801639780000012628812343708923063_);stroke:#000000;stroke-width:3;stroke-miterlimit:10;}
	.st11{fill:#59251E;stroke:#000000;stroke-width:3;stroke-miterlimit:10;}
	.st12{fill:#2B120F;stroke:#000000;stroke-width:3;stroke-miterlimit:10;}
	.st13{fill:url(#SVGID_00000066516347140693221320000012885200180893022652_);stroke:#000000;stroke-width:3;stroke-miterlimit:10;}
	.st14{fill:#DD654B;stroke:#000000;stroke-width:3;stroke-miterlimit:10;}
	.st15{fill:#2B2B2B;}
	.st16{fill:#691B1B;}
</style>
<g>
	<defs>
		<rect id="SVGID_1_" width="1000" height="1000"/>
	</defs>
	<clipPath id="SVGID_00000091000891632765602390000003185077816270035873_">
		<use xlink:href="#SVGID_1_"  style="overflow:visible;"/>
	</clipPath>
	<g style="clip-path:url(#SVGID_00000091000891632765602390000003185077816270035873_);">
		<path class="st1" d="M384.7,321.4c0,0-67-170.2-95-131.1c-28,39.1-25.6,95.9-25.6,95.9l30.1,79.2"/>
		<g>
			<path class="st2" d="M754.6,258.9c-1,2.1-2,4.2-3,6.2l0,0c-34.4,68.7-108.3,122.2-108.3,122.2l-123.8-65.7
				c0,0,1.5-79.7,23.1-147.9c16.8-53.2,45.9-99.4,96-95.5C753.1,87.2,787.5,187.3,754.6,258.9z"/>
			<path class="st3" d="M527.3,324c0,0,53.4-254.1,163.4-204.2S618.9,377,618.9,377"/>
			<path class="st4" d="M751.6,265.2c-34.4,68.7-108.3,122.2-108.3,122.2l-123.8-65.7c0,0,1.5-79.7,23.1-147.9
				c3.7,11.6,11.6,22.2,28.3,22.7c0,0,65.2,93.2,129.9,57.9C700.9,254.4,714.2,297.5,751.6,265.2z"/>
		</g>
		<g>
			<path class="st5" d="M911.9,1180.9c2.9,1.9,51,33.7,31.7,59.5c-21.7,28.9-68.6,33.3-86.5-0.9c-13-24.9-18.8-56.2-30-82.7
				c-8.9-21.1-18.3-42-28.4-62.6c-4.2-8.5-8.4-16.9-12.8-25.3c-23.9-45.4-57.8-114.4-110.4-132.4l24-75.4
				c59.5,13.9,104.7,77.7,135.8,141.6c35.5,72.8,52.9,145.8,52.9,145.8s70-7.8,62.7,22.2C943.8,1199.7,914.1,1182.3,911.9,1180.9z"
				/>
			<path class="st6" d="M835.2,1002.7c-14.3,21.7-29.7,52.6-36.6,91.5c-4.2-8.5-8.4-16.9-12.8-25.3
				c-23.9-45.4-57.8-114.4-110.4-132.4l24-75.4C758.9,875,804,938.8,835.2,1002.7z"/>
		</g>
		<g>
			<g>
				<path class="st5" d="M271.1,1343.6c0,0-26.9,116.6-223.3-25.9c-78.6-57-95.3-137.6-87.2-213.9c2.4-22.6,7-44.8,12.8-65.9
					c23.7-85.8,67.7-153.1,67.7-153.1s74.8,82.5,91,207.1c2.2,16.7,3.3,34.2,3,52.4c-0.2,15.2,0.5,29.1,1.8,41.8
					c12.4,115.1,83.2,130.4,83.2,130.4L271.1,1343.6z"/>
				<path class="st7" d="M271.1,1343.6c0,0-26.9,116.6-223.3-25.9c-78.6-57-95.3-137.6-87.2-213.9c0.7,0.4,1.5,0.8,2.3,1.3
					c6.2,3.4,13.5,6.8,21.6,9.9c36.2,13.8,89.6,20.2,145.4-21.5c0.8-0.6,1.5-1.1,2.3-1.7c2.2,16.7,3.3,34.2,3,52.4
					c-0.2,15.2,0.5,29.1,1.8,41.8c12.4,115.1,83.2,130.4,83.2,130.4L271.1,1343.6z"/>
				<path d="M273.5,1344.2c-0.3,1.2-7.3,30.1-38.8,42c-20.2,7.6-45.1,6.4-74.7-3.3c-32.4-10.7-70.4-31.8-113.6-63.1
					c-45.3-32.9-73.9-76.3-84.9-129.2c-8.8-42.2-6.4-90.4,7-143.2c1.4-5.4,2.8-10.7,4.4-16c23.9-82.3,65.9-147.1,66.3-147.8l1.7-2.6
					l2.1,2.3c0.3,0.3,24.6,27.3,48.2,72.7c21.8,41.9,47.6,108.7,46.5,188.4c-0.2,12.4,0.2,26.1,1.7,40.3
					c3.7,35.4,14.2,73.7,39.1,101.4c20.8,23.2,42.1,28.1,42.3,28.2l-0.5,2.4l-0.5,2.4c-0.9-0.2-22.8-5.2-44.6-29.4
					c-16-17.7-34.2-48.8-40.3-101.5c-1.5-13.2-2.3-27.8-2.1-43.8c0.3-17.6-0.8-34.5-2.9-50.6c-7.2-56.2-26.2-103.1-43-135.3
					c-19.4-37.2-39.1-61.9-45.5-69.4c-8.6,13.8-47,78.2-67.3,155.8c-0.3,1.3-0.7,2.6-1,3.9c-4.9,19.5-8.3,38.4-10.2,56.6
					c-3.2,30.3-2,58.5,3.4,84.4c10.8,51.6,38.7,94.1,83,126.2c55.9,40.5,133.1,84.8,183.7,65.8c29.2-10.9,35.8-38.3,35.8-38.5
					l2.4,0.5L273.5,1344.2z"/>
			</g>
			<path class="st4" d="M273.5,1344.2c-0.3,1.2-7.3,30.1-38.8,42c-20.2,7.6-45.1,6.4-74.7-3.3c-32.4-10.7-70.4-31.8-113.6-63.1
				c-45.3-32.9-73.9-76.3-84.9-129.2c-8.8-42.2-6.4-90.4,7-143.2c1.4-5.4,2.8-10.7,4.4-16c0.2,2.2,0.4,4.4,0.6,6.7
				c0.2,2.2,0.5,4.4,0.7,6.7c2.3,21.9,5.6,45.8,10.4,70.4c20,103.8,65.5,217.7,168.6,226.1c0,0-45.9-124.1-18.2-153.1
				c0.7-0.7,1.4-1.4,2.2-2c0.7-0.6,1.5-1.1,2.4-1.5c3.7,35.4,14.2,73.7,39.1,101.4c20.8,23.2,42.1,28.1,42.3,28.2l-0.5,2.4
				l50.9,27.1L273.5,1344.2z"/>
		</g>
		<path class="st5" d="M616.6,1607c-0.1,1.2-0.2,2.4-0.2,3.4c-0.5,15.8,8.2,16.4,10,25.4c2,9.6-17.6,3.8-17.6,3.8
			c0,11.5-27.4,3.8-27.4,3.8c-9.8,11.5-25.5-7.7-29.4-26.9c-3.9-19.2-9.8-174.8-9.8-174.8l127.4-9.6c0,0-3,9.2-7.6,23.3
			C647.7,1499.7,618.1,1592.5,616.6,1607z"/>
		<path class="st4" d="M565.6,1481.2c-2,45.1-7.8,127.4,9.8,131.3c9.7,2.2,27.2,0.2,40.9-2.1c-0.5,15.8,8.2,16.4,10,25.4
			c2,9.6-17.6,3.8-17.6,3.8c0,11.5-27.4,3.8-27.4,3.8c-9.8,11.5-25.5-7.7-29.4-26.9c-3.9-19.2-9.8-174.8-9.8-174.8l127.4-9.6
			c0,0-3,9.2-7.6,23.3C633,1451.5,567.2,1446.1,565.6,1481.2z"/>
		<path class="st5" d="M432.1,1617.8c-0.6,16.1,8.2,16.6,10,25.7c2,9.6-17.6,3.8-17.6,3.8c0,11.5-27.4,3.8-27.4,3.8
			c-9.8,11.5-25.5-7.7-29.4-26.9c-3.9-19.2-17.6-192.1-17.6-192.1l135.2,7.7c0,0-3.9,11.9-9.6,29.5
			c-14.9,46.1-41.9,131.4-43.3,145.2C432.2,1615.8,432.2,1616.9,432.1,1617.8z"/>
		<path class="st5" d="M510.8,1451.9"/>
		<path class="st4" d="M377.5,1477.3c-3.9,45.1,0,147,15.7,147c8.4,0,25.2-3.4,39-6.5c-0.6,16.1,8.2,16.6,10,25.7
			c2,9.6-17.6,3.8-17.6,3.8c0,11.5-27.4,3.8-27.4,3.8c-9.8,11.5-25.5-7.7-29.4-26.9c-3.9-19.2-17.6-192.1-17.6-192.1l135.2,7.7
			c0,0-3.9,11.9-9.6,29.5C441.2,1459,380.3,1445.1,377.5,1477.3z"/>
		<g>
			<path class="st8" d="M773.4,1416.6c-3.6,9-32,18.6-74.3,26.3c-36.4,6.7-83,12.1-132.9,14.6c-35.2,1.8-72,2.3-108,0.8
				c-40.3-1.6-79.6-5.7-114.3-12.8c-60.7-12.5-107.3-34.6-121.3-70.1c-36.7-93.3-8.3-323.2,10.5-444.1c5.1-32.6,9.4-57.2,11.6-69.2
				c1-5.2,1.5-8,1.5-8c7.8-51,2-100,2-100s-15.7-362.6,51-399.8c25.7-14.4,78.9-32,137.6-42.6c7.9-1.5,16-2.8,24-3.9
				c86.9-12.5,179.1-7.4,208.8,46.5c52.9,96,33.3,348.9,52.9,425.3c26.4,102.8,19.6,76.4,51,274.4c5.4,34.4,9.5,66.6,12.3,96.5
				C799.3,1292.9,786.3,1384.2,773.4,1416.6z"/>
			<path class="st7" d="M773.4,1416.6c-3.6,9-32,18.6-74.3,26.3c53.2-86.9,76.6-199.6,86.6-292.4
				C799.3,1292.9,786.3,1384.2,773.4,1416.6z"/>
			<path class="st7" d="M344,1445.5c-60.7-12.5-107.3-34.6-121.3-70.1c-36.7-93.3-8.3-323.2,10.5-444.1c4,97.7,17,260.7,59.1,392.2
				C309,1375.8,326.8,1415.5,344,1445.5z"/>
			<path d="M582.7,1453.8c-25.3,1.6-52.2,2.5-80.1,2.5c-1.1,0-2.2,0-3.3,0c-13.8,0-31.1-0.4-50.4-1.4c0.2,2,0.3,4,0.4,6
				c16.1,0.8,32.8,1.2,50,1.3c1,0,2,0,3,0c27,0,54.3-1,80.6-2.7C582.8,1457.6,582.8,1455.7,582.7,1453.8z"/>
			<path d="M666.9,355.7c33.1,60,37.6,184.4,41.3,284.3c2.2,60,4.1,111.8,11.4,140.3c20.2,78.8,20.9,81.6,34.3,168c2-0.1,4,0,6,0.3
				c-13.6-87.9-14.3-90.4-34.6-169.8c-7.1-27.9-9-79.4-11.2-139c-3.7-100.6-8.2-225.7-42-287c-11.6-21-32.9-36.1-63.4-44.8
				c-94-26.9-257.1,13.5-311,43.6c-67.4,37.7-53.1,387.6-52.5,402.5l0,0.2c0.1,0.5,5.7,49.2-1.9,99.1c-0.1,0.4-0.6,3.2-1.5,8
				c-11.8,65.2-68.4,396.7-21.9,514.9c11.8,29.9,46.3,52.5,102.5,67.1c13.6,3.5,28.5,6.6,44.5,9.1c-0.6-2.1-1.1-4.2-1.5-6.3
				c-63.2-10.3-123.9-31-140.1-72c-19.5-49.5-22.9-143.2-10.1-278.5c10.1-106.4,27.3-205.4,32.3-233.2c0.9-5.2,1.5-8,1.5-8l0-0.1
				c7.6-49.6,2.3-97.9,2-100.6c-0.3-7.9-14.5-361.3,49.5-397c53.2-29.7,213.9-69.6,306.5-43.1C636,322.1,656.1,336.2,666.9,355.7z"
				/>
			<path d="M776.1,1052.4c-2.3-1.1-4.5-2.5-6.6-4c0.3,2,0.6,4,0.9,6c32.4,204.8,14.3,325.7,0.2,361c-4,10.1-51.6,23.5-121.8,32.2
				c-0.2,1.9-0.3,3.9-0.5,5.8c69.6-8.4,122.2-22,127.7-35.8c14.3-35.8,32.8-158.1,0.2-364.1C776.2,1053.2,776.2,1052.8,776.1,1052.4
				z"/>
			<path class="st5" d="M260.9,862.9"/>
			<path class="st5" d="M202.1,804.1"/>
			<path class="st7" d="M262.8,1002.5c-4.8,24.7,5.4,53,25.2,68.8c6.8,5.5,16,8.7,24.4,6.5c30.8-8.3,49.1-99.9,12.1-110.8
				C302.1,960.4,267.3,979.1,262.8,1002.5z"/>
			<path class="st4" d="M566.2,1457.6c-35.2,1.8-72,2.3-108,0.8c-40.3-1.6-79.6-5.7-114.3-12.8c-60.7-12.5-107.3-34.6-121.3-70.1
				c-36.7-93.3-8.3-323.2,10.5-444.1c5.1-32.6,9.4-57.2,11.6-69.2c1-5.2,1.5-8,1.5-8c7.8-51,2-100,2-100s-15.7-362.6,51-399.8
				c25.7-14.4,78.9-32,137.6-42.6C387.1,414.3,258,702.4,323.6,790.4c54,72.5,114.2,80.3,147.9,77.6
				c-70.1,18.3-251.4,100.3-198.9,453.5C272.6,1321.5,278.3,1431.4,566.2,1457.6z"/>
		</g>
		<g>
			<path d="M583.5,424.1c20.3-36.5,65.5-39.8,91.3,5.1c18.2,31.6,19.7,68.2,0.7,95.9c-16.7,24.4-46.9,33.3-71.6,20.1
				C567.6,525.9,564,459.2,583.5,424.1z"/>
			<path class="st9" d="M582.3,433.4c19.3-33.7,62-37,86.2,4.2c17,29,18.3,62.8,0.2,88.5c-15.8,22.6-44.5,31-67.7,18.9
				C566.8,527.3,563.7,465.8,582.3,433.4z"/>
			<g>
				
					<linearGradient id="SVGID_00000051343270562959929430000010324406297586312350_" gradientUnits="userSpaceOnUse" x1="560.6627" y1="493.8009" x2="560.6627" y2="530.0892" gradientTransform="matrix(1.7128 5.184097e-03 -3.026889e-03 1 -345.3863 -27.3231)">
					<stop  offset="0" style="stop-color:#853A00"/>
					<stop  offset="1" style="stop-color:#E27329"/>
				</linearGradient>
				
					<path style="fill:url(#SVGID_00000051343270562959929430000010324406297586312350_);stroke:#000000;stroke-width:3;stroke-miterlimit:10;" d="
					M611.6,528.2c-47.9-5.8-54.1-94.1-4.6-97.9c13.8-1.1,27.2,7.2,35,16.9c19.1,23.9,19,80.7-24.7,81.3
					C615.3,528.6,613.4,528.5,611.6,528.2z"/>
				<path d="M615.7,515.9c-22.6-3.7-25.7-63.4-2.4-66.2c6.5-0.8,12.8,4.8,16.5,11.3c9.1,16.1,9.1,54.5-11.5,55.1
					C617.5,516.1,616.6,516,615.7,515.9z"/>
				
					<ellipse transform="matrix(0.1143 -0.9934 0.9934 0.1143 87.3372 1003.9108)" class="st5" cx="606.7" cy="453" rx="8.9" ry="10.2"/>
			</g>
		</g>
		<path class="st5" d="M567.6,546.4c0,0,395.9-52.9,343,150.9S673.4,879.6,673.4,879.6"/>
		<path class="st11" d="M925.1,648.4c-10.4,29-40.4,47-76.6,57.3c-21.3,6-44.7,9.4-67.6,10.8c-36.3,2.2-71.3-0.6-93.9-5.9
			c-7.2-1.7-14.4-3.7-21.3-6.2c-4.3-1.5-8.5-3.2-12.6-5.1c-24.8-11.2-44.4-28-48.1-50.2c-2-11.9,0.7-25.4,9.8-40.3
			c30.3-50,89.3-69.5,145-72.4c101.7-5.4,142.2,27.7,157.6,49.1c7.1,9.8,8.9,17.3,9,17.5C930.5,620.6,929.7,635.6,925.1,648.4z"/>
		<path class="st12" d="M780.8,716.6c-36.3,2.2-71.3-0.6-93.9-5.9c-7.2-1.7-14.4-3.7-21.3-6.2v-5.2c11.9-23.9,38.1-37.6,64.4-35.5
			C754.8,665.9,790.9,687.1,780.8,716.6z"/>
		<path class="st12" d="M925.1,648.4c-10.4,29-40.4,47-76.6,57.3c1.9-16.3,9.4-45.8,38.6-55.5C902.2,645.2,915,645.7,925.1,648.4z"
			/>
		<g>
			<path d="M464.7,429.6c-33.9-32.4-86.6-20.8-103.1,36.2c-11.6,40.1-2.7,80,27.2,103.5c41.3,32.5,112.7,8.9,108.5-58.2
				C495.5,482.3,484.2,448.2,464.7,429.6z"/>
			<path class="st9" d="M471.8,439.8c-31.9-30.8-81.5-19.9-97,34.3c-10.9,38.1-2.5,76,25.7,98.4c38.9,30.9,106.1,8.6,102.1-55.2
				C500.9,489.9,490.2,457.5,471.8,439.8z"/>
			<g>
				
					<linearGradient id="SVGID_00000140712341579207630830000008784014596595263629_" gradientUnits="userSpaceOnUse" x1="397.116" y1="487.5806" x2="397.116" y2="531.1127" gradientTransform="matrix(0.9971 -7.594531e-02 7.594531e-02 0.9971 -13.8118 39.8519)">
					<stop  offset="0" style="stop-color:#853A00"/>
					<stop  offset="1" style="stop-color:#E27329"/>
				</linearGradient>
				
					<path style="fill:url(#SVGID_00000140712341579207630830000008784014596595263629_);stroke:#000000;stroke-width:3;stroke-miterlimit:10;" d="
					M421.9,566.5c-54.3-1.7-68.3-106.8-12.9-116.8c15.5-2.8,31.2,5.7,40.7,16.4c23.4,26.6,27.8,94.6-21.4,100.1
					C426.1,566.5,424,566.6,421.9,566.5z"/>
				<path d="M425.6,551.3c-25.7-2-33.9-73.2-7.9-79.1c7.3-1.7,14.8,4.3,19.5,11.7c11.5,18.3,14.6,64.3-8.5,67.3
					C427.6,551.3,426.6,551.4,425.6,551.3z"/>
				
					<ellipse transform="matrix(0.9971 -7.594531e-02 7.594531e-02 0.9971 -35.0329 32.5507)" class="st5" cx="410.5" cy="476.9" rx="11.6" ry="10.7"/>
			</g>
		</g>
		<path class="st14" d="M356.2,404c0,0,40.2-69.6,99.4-57.6c0,0-22.6-36.2-69.3-5.2S356.2,404,356.2,404z"/>
		<g>
			<path class="st15" d="M673.5,839.3c-21.4,7.6-42.9,15.3-82.6,3c-0.7-0.2-3.5,2.1,0.3,3.5c23.5,9,63.8,12.1,83.7-3.4
				C676.1,841.4,675,838.8,673.5,839.3z"/>
			<path class="st16" d="M717.6,747c-5.3-0.6-15,7.3-17.6,11.2c-3.5,5.2-7.5,11-10.4,16.7c-2.7,5.4-6.8,13.5-6.6,19.5
				c0.2,4.6,4.4,13.5,8.3,16.8c0.5,0.4,1,1.6,1.4,2.1c4.4-3.9,5.7-10.3,8.4-15c3.1-5.3,6.4-9.7,8.3-15.4c1.7-5.4,12.6-32.3,7.7-35.4
				L717.6,747z"/>
			<path class="st16" d="M540.4,748.3c2.6-0.3,6.3,2.6,9.1,3.6c3.5,1.3,7.5,1.9,10.9,3.1c7.1,2.3,8,7.4,10.1,13.7
				c2,6.2,5.5,12.7,6.4,18.9c0.6,4.3-5.4,14.8-10.5,17c-3.6,1.5-3.8-0.1-6.2-3.2c-2-2.5-4.1-4.9-5.8-7.5c-2.5-4.2-4.8-9-6.9-13.2
				c-4.8-9.3-7.6-22.2-7.6-32.4H540.4z"/>
			<path class="st9" d="M564.4,758.1c0.1-0.4-1-0.9,0-0.6c9.5,9.9,5.7,26.7,16.5,35.5c2.5,2,5.9,2.3,8.5,3.6c3.1,1.6,5,3.5,8.6,4.5
				c6.7,2,13.4,4.4,20.2,5.7c6.9,1.2,15.4,1.3,22.6,1.3c8.8,0.1,15.8-3.6,24-6.1c13.7-4.1,21.9-14.5,27.7-26.8
				c2.3-4.9,5.3-11.1,5.3-16.2c-3.8-0.7-9.6,3.3-13.3,4.4c-4.8,1.4-9.7,2.8-14.4,4.3c-8.8,2.8-17.7,5-26.9,5.4
				c-19.1,0.9-39,0.5-57-6.5c-4.1-1.6-8-3.8-12.1-5.4c-3-1.2-6.5-1.5-9-3.2c0.3-0.3,0.6-0.9,0.9-1.2L564.4,758.1z"/>
			<path class="st9" d="M563.9,807.6c0.7,0.7,10.1-15.9,13.4-16.4c2.4-0.3,7,4.1,9,5c3.4,1.6,7.2,2.4,10.7,3.4
				c14.8,4.2,30.4,10.1,46.1,7.5c14-2.2,25.3-5.1,37.3-12.8c3.2,3.3,10.8,16.7,11.2,17.7c2.4,6.2-15.1,13.5-21.1,15.2
				c-8.1,2.3-17.1,2.3-25.4,3.4c-8,1.1-15,3.4-23.5,2.7c-5.5-0.5-11.3-2.2-16.8-3.1c-5.6-1-10.6-1.2-15.8-3.2
				c-5.1-2-9.1-4.8-13.4-7.9c-3.6-2.7-12-6.4-12-11L563.9,807.6z"/>
			<path class="st15" d="M719.7,742c-33.2,16.6-59.7,32.7-99.5,27.5c-14.8-2-29-5.5-43-10.3c-11.6-4-40-17.4-40-12
				c0,19.6,12.7,45.3,24.7,61.5c29.9,40.4,115.6,26,131.8,7.7C710.1,797.8,727,738.4,719.7,742z M581.2,768.2
				c16.1,6.1,33.1,8.6,50.3,10.3c21,2.1,43.8-6.5,62.8-15.6c-3.7,6.3-10.9,24.8-14.4,30.2c-30.1,27.3-96.7,5.2-100.5-4
				c-4.3-10.2-6.4-16-11.2-26.5C573.3,765,576.1,766.3,581.2,768.2z M542.4,751.5c6.6,2.2,13.2,5.3,19.8,8.3
				c1.2,4.9,10.5,22,12.8,30.8c-3.4,3.5-6.8,9.4-11.3,13.3C541.4,770.7,541.3,757.9,542.4,751.5z M566.9,807.2
				c4.2-6.5,8.9-10.1,11.8-14.2c12.4,9.9,34.3,15.9,49.3,17.4c17.1,1.7,37.4-3.8,52.6-12.3c1.4,4.3,6.4,10.6,8.2,15.8
				C683.5,824.8,593.2,848.2,566.9,807.2z M692.1,811c-0.4-0.8-8.1-13.1-8.3-16.2c0.1,0,13.1-27.4,15.7-34.2c4.2-2.1,11-7.6,15-9.8
				C713.3,765.9,705.9,794.2,692.1,811z"/>
		</g>
		<path class="st14" d="M562.4,332.6c-0.2-6.8,25.3-4.4,28.6-4.3c20.5,0.9,36.2,12.3,51.8,27.9c4.4,4.4,8.8,8.9,13.4,13
			c0.9-14.3-10.3-30.7-18.7-39.7c-11.3-12-26-18.5-40.9-18.6C585,310.9,561.8,313,562.4,332.6z"/>
		<g>
			<path class="st5" d="M245.2,996.1c-26.5,19.6-68,135.2-75.5,157.2c-2.1,6.3-5.4,9.7,0.9,13.8c14,9.1,28.9,25.8,22.7,43.7
				c-3.3,9.5-33,31.9-35.7,12.6c-0.7-5.2-0.6-10.5-1.1-15.7c-0.3-3.8-0.5-11.3-3.7-13.8c-6.5,6.4-6.5,17.4-5.9,25.9
				c0.1,0.7,0.1,1.5,0.2,2.2c0.7,8.3,3.1,18.3-1.8,25.9c-4,6.1-12.3,9-19.3,8.8c-7.8-0.2-15.3-3.8-21.4-8.6
				c-12.5-9.7-23.1-23.4-23.4-39.8c-0.4-23.2,6.9-46.8,13.9-68.7c30.8-97.1,76.3-218.9,170.2-271.7"/>
			<path class="st4" d="M265.2,869.8l-20,128.3c-15.3,11.3-35.7,54.7-51.6,93.6c24.1-61.6,17-125.6,7-167.7
				C219.3,902.2,240.6,883.6,265.2,869.8z"/>
		</g>
		<g>
			<path class="st2" d="M314.3,492.2c-68.5,58.8-142.4-8.3-182.8-65.3c-14.5-20.5-29-41.2-43.5-61.7c-7.1-10.1-19.8-29.6-8.5-41.3
				c10-10.4,45.8-15.7,60-22.6c17.2-8.4,33.7-18.1,49.5-29c9.1-6.3,102.9-79.4,100.8-82c0,0,5.3,6.9,13,18.8
				c19.2,29.7,53.7,90.4,60.1,153.2C367.5,408.4,357,455.5,314.3,492.2z"/>
			<path class="st4" d="M314.3,492.2c-68.5,58.8-142.4-8.3-182.8-65.3c-14.5-20.5-29-41.2-43.5-61.7c-7.1-10.1-19.8-29.6-8.5-41.3
				c10-10.4,45.8-15.7,60-22.6c17.2-8.4,33.7-18.1,49.5-29c9.1-6.3,102.9-79.4,100.8-82c0,0,5.3,6.9,13,18.8
				c-40.5,35.7-100.5,86.4-164.3,131.5c0,0,95.4,160,224.4,21.7C367.5,408.4,357,455.5,314.3,492.2z"/>
		</g>
		<path class="st6" d="M917.3,585.7c-82.7-23.1-225.8-48.1-261.5,41c-11.7,29.2-10.9,53.1-2.8,72.7c-24.8-11.2-44.4-28-48.1-50.2
			c-2-11.9,0.7-25.4,9.8-40.3c30.3-50,89.3-69.5,145-72.4C861.3,531.2,901.8,564.2,917.3,585.7z"/>
	</g>
</g>
</svg>
